# xmcd CD database file
#
# Track frame offsets:
#	150
#	25185
#	53304
#	79942
#	107990
#	125888
#	142861
#	177312
#	201405
#	237339
#	261869
#	291739
#	326137
#
# Disc length: 4751 seconds
#
# Revision: 1
# Processed by: cddbd v1.5.1PL0 Copyright (c) Steve Scherf et al.
# Submitted via: CDex 1.51
#
DISCID=c8128d0d
DTITLE=Los Van Van - Vive
DYEAR=2003
DGENRE=Salsa
TTITLE0=Agua
TTITLE1=Ahora Quiéreme
TTITLE2=Nada Diferente
TTITLE3=Qué Cosas Tiene La Vida (Remix)
TTITLE4=Vive
TTITLE5=Proposiciones (Con Pablo Milanes)
TTITLE6=Tim - Pop con Birdland
TTITLE7=Quien No Ha Dicho Una Mentira
TTITLE8=Soy Todo (Ay Dios Ampárame)
TTITLE9=Mi Mimi
TTITLE10=Esto te Pone la Cabeza Mala
TTITLE11=Mi Chocolate
TTITLE12=Qué Cosas Tiene La Vida
EXTD=YEAR: 2003
EXTT0=
EXTT1=
EXTT2=
EXTT3=
EXTT4=
EXTT5=
EXTT6=
EXTT7=
EXTT8=
EXTT9=
EXTT10=
EXTT11=
EXTT12=
PLAYORDER=
